<svg xmlns="http://www.w3.org/2000/svg" id="lamp" viewBox="0 0 32 32">
  <path d="M17.5 31a.5.5 0 0 0 .5-.5V29h.5a.5.5 0 0 0 .5-.5V27h.5a.5.5 0 0 0 .5-.5v-4.444A9.02 9.02 0 0 0 25 14c0-4.962-4.038-9-9-9s-9 4.038-9 9a9.02 9.02 0 0 0 5 8.056V26.5a.5.5 0 0 0 .5.5h.5v1.5a.5.5 0 0 0 .5.5h.5v1.5a.5.5 0 0 0 1 0V29h2v1.5a.5.5 0 0 0 .5.5zm-4.793-9.716A8.015 8.015 0 0 1 8 14c0-4.411 3.589-8 8-8s8 3.589 8 8a8.015 8.015 0 0 1-4.707 7.284.5.5 0 0 0-.293.456V26h-1.5v-3.909l1.468-3.915a.485.485 0 0 0 .006-.301c.012-.041.026-.081.026-.125 0-.965-.785-1.75-1.75-1.75-.49 0-.932.204-1.25.529A1.745 1.745 0 0 0 14.75 16c-.965 0-1.75.785-1.75 1.75 0 .044.014.084.025.125a.492.492 0 0 0 .006.301l1.468 3.915V26H13v-4.26a.5.5 0 0 0-.293-.456zm2.761.54l-1.489-3.971c.008-.034.021-.066.021-.103a.75.75 0 0 1 1.5 0 .5.5 0 0 0 1 0 .75.75 0 0 1 1.5 0c0 .037.013.069.021.103l-1.489 3.971A.503.503 0 0 0 16.5 22v4h-1v-4c0-.06-.011-.12-.032-.176zM18 27v1h-4v-1h4zM16.5 3.5v-2a.5.5 0 0 0-1 0v2a.5.5 0 0 0 1 0zM26 14a.5.5 0 0 0 .5.5h2a.5.5 0 0 0 0-1h-2a.5.5 0 0 0-.5.5zM3.5 14.5h2a.5.5 0 0 0 0-1h-2a.5.5 0 0 0 0 1zM20.018 4.799a.5.5 0 0 0 .462-.309l.766-1.848a.5.5 0 1 0-.924-.382l-.766 1.848a.5.5 0 0 0 .462.691zM25.509 18.48l1.848.766a.497.497 0 0 0 .653-.271.5.5 0 0 0-.271-.653l-1.848-.766a.5.5 0 0 0-.382.924zM4.26 9.678l1.848.766a.497.497 0 0 0 .653-.271.5.5 0 0 0-.27-.653l-1.848-.766a.5.5 0 1 0-.383.924zM23.071 6.222a.5.5 0 0 0 .708.707l1.414-1.414a.5.5 0 0 0-.707-.707l-1.415 1.414zM7.161 23.339a.502.502 0 0 0 .354-.146l1.414-1.414a.5.5 0 0 0-.707-.707l-1.414 1.414a.5.5 0 0 0 .353.853zM24.485 23.192a.498.498 0 0 0 .708 0 .5.5 0 0 0 0-.707l-1.414-1.414a.5.5 0 0 0-.707.707l1.413 1.414zM6.808 4.808a.5.5 0 0 0 0 .707l1.414 1.414a.498.498 0 0 0 .708 0 .5.5 0 0 0 0-.707L7.515 4.808a.499.499 0 0 0-.707 0zM27.357 8.754l-1.848.766a.5.5 0 0 0 .382.924l1.848-.766a.5.5 0 0 0-.382-.924zM6.108 17.556l-1.848.766a.5.5 0 0 0 .382.924l1.848-.766a.5.5 0 0 0-.382-.924zM11.982 4.799a.5.5 0 0 0 .462-.691l-.766-1.848a.5.5 0 0 0-.924.382l.766 1.848a.5.5 0 0 0 .462.309z"></path>
</svg>
