<?xml version="1.0" encoding="UTF-8"?><svg id="Layer_1" xmlns="http://www.w3.org/2000/svg" viewBox="0 0 999.02 998.65"><defs><style>.cls-1{fill:#fff;fill-rule:evenodd;}.cls-2{fill:#2563eb;}</style></defs><ellipse class="cls-2" cx="499.51" cy="499.33" rx="499.51" ry="499.33"/><path class="cls-1" d="M402.21,596.36h-.07c-40.2.08-72.72,32.74-72.63,72.94.07,33.44,22.92,62.53,55.39,70.52l36.14,90.35c7.96,19.92,27.25,32.98,48.7,32.99h58.84c21.44,0,40.72-13.05,48.7-32.99l36.14-90.35c39.03-9.61,62.89-49.04,53.28-88.08-7.99-32.47-37.08-55.32-70.52-55.39h-.07l-.12-50.13c60.15-34.63,97.22-98.75,97.21-168.16,0-107.08-86.95-194.04-194.04-194.04s-194.04,86.95-194.04,194.04c0,69.41,37.06,133.53,97.21,168.16l-.12,50.13ZM560.35,741.89h-122.39l28.11,70.29c.61,1.49,2.05,2.47,3.66,2.47h58.84c1.61,0,3.05-.98,3.66-2.47l28.11-70.29ZM596.49,693.38c13.4-.09,24.18-11.02,24.1-24.41-.09-13.4-11.02-24.18-24.41-24.1h-194.04c-13.4-.09-24.33,10.7-24.41,24.1-.09,13.4,10.7,24.33,24.1,24.41h194.67ZM547.59,596.36l-.17-64.69c-.03-9.4,5.38-17.97,13.87-22,50.89-24.07,83.36-75.31,83.39-131.61,0-80.31-65.22-145.53-145.53-145.53s-145.53,65.22-145.53,145.53c.03,56.3,32.49,107.54,83.39,131.61,8.5,4.02,13.9,12.6,13.87,22l-.17,64.69h24.18v-111.23l-41.4-41.4c-9.31-9.63-9.04-24.99.6-34.3,9.4-9.08,24.3-9.08,33.7,0l31.36,31.36,31.36-31.36c9.64-9.31,24.99-9.04,34.3.6,9.08,9.4,9.08,24.3,0,33.7l-41.4,41.4v111.23h24.18ZM724.55,443.73l48.51,48.51c9.64,9.31,24.99,9.04,34.3-.6,9.08-9.4,9.08-24.3,0-33.7l-48.51-48.51c-9.64-9.31-24.99-9.04-34.3.6-9.08,9.4-9.08,24.3,0,33.7ZM239.46,409.44l-48.51,48.51c-9.31,9.64-9.04,24.99.6,34.3,9.4,9.08,24.3,9.08,33.7,0l48.51-48.51c9.31-9.64,9.04-24.99-.6-34.3-9.4-9.08-24.3-9.08-33.7,0ZM256.61,281.06h-48.51c-13.4,0-24.25,10.86-24.25,24.25s10.86,24.25,24.25,24.25h48.51c13.4,0,24.25-10.86,24.25-24.25s-10.86-24.25-24.25-24.25ZM741.7,329.57h48.51c13.4,0,24.25-10.86,24.25-24.25s-10.86-24.25-24.25-24.25h-48.51c-13.4,0-24.25,10.86-24.25,24.25s10.86,24.25,24.25,24.25ZM346.52,191.14l-48.51-48.51c-9.64-9.31-24.99-9.04-34.3.6-9.08,9.4-9.08,24.3,0,33.7l48.51,48.51c9.64,9.31,24.99,9.04,34.3-.6,9.08-9.4,9.08-24.3,0-33.7ZM686.09,225.44l48.51-48.51c9.31-9.64,9.04-24.99-.6-34.3-9.4-9.08-24.3-9.08-33.7,0l-48.51,48.51c-9.31,9.64-9.04,24.99.6,34.3,9.4,9.08,24.3,9.08,33.7,0Z"/></svg>